<svg xmlns="http://www.w3.org/2000/svg" width="820" height="360" viewBox="0 0 820 360" role="img" aria-labelledby="title desc">
  <title id="title">Fresh pending-opener capability and causal-site gates</title>
  <desc id="desc">All 24 native capability cells, all 8 target swap cells, and all 12 answer-preserving control-liveness cells passed.</desc>
  <rect width="820" height="360" fill="#ffffff"/>
  <text x="30" y="34" font-family="sans-serif" font-size="21" font-weight="700" fill="#172033">Fresh three-value pending-opener gates</text>
  <text x="30" y="58" font-family="sans-serif" font-size="13" fill="#536075">Percent of preregistered FIT/SELECT cells that passed</text>
  <line x1="300" y1="84" x2="770" y2="84" stroke="#d7dce5"/>
  <line x1="300" y1="84" x2="300" y2="300" stroke="#d7dce5"/>
  <line x1="417.5" y1="84" x2="417.5" y2="300" stroke="#edf0f4"/>
  <line x1="535" y1="84" x2="535" y2="300" stroke="#edf0f4"/>
  <line x1="652.5" y1="84" x2="652.5" y2="300" stroke="#edf0f4"/>
  <line x1="770" y1="84" x2="770" y2="300" stroke="#d7dce5"/>
  <text x="300" y="320" text-anchor="middle" font-family="sans-serif" font-size="12" fill="#536075">0%</text>
  <text x="417.5" y="320" text-anchor="middle" font-family="sans-serif" font-size="12" fill="#536075">25%</text>
  <text x="535" y="320" text-anchor="middle" font-family="sans-serif" font-size="12" fill="#536075">50%</text>
  <text x="652.5" y="320" text-anchor="middle" font-family="sans-serif" font-size="12" fill="#536075">75%</text>
  <text x="770" y="320" text-anchor="middle" font-family="sans-serif" font-size="12" fill="#536075">100%</text>

  <text x="285" y="126" text-anchor="end" font-family="sans-serif" font-size="14" fill="#172033">Native ordered-pair capability</text>
  <rect x="300" y="103" width="470" height="34" rx="4" fill="#2878b5"/>
  <text x="755" y="125" text-anchor="end" font-family="sans-serif" font-size="14" font-weight="700" fill="#ffffff">24/24 · 100%</text>

  <text x="285" y="198" text-anchor="end" font-family="sans-serif" font-size="14" fill="#172033">L13H8 target swap</text>
  <rect x="300" y="175" width="470" height="34" rx="4" fill="#2e9b66"/>
  <text x="755" y="197" text-anchor="end" font-family="sans-serif" font-size="14" font-weight="700" fill="#ffffff">8/8 · 100%</text>

  <text x="285" y="270" text-anchor="end" font-family="sans-serif" font-size="14" fill="#172033">Control effect detectable</text>
  <rect x="300" y="247" width="470" height="34" rx="4" fill="#8a62b8"/>
  <text x="755" y="269" text-anchor="end" font-family="sans-serif" font-size="14" font-weight="700" fill="#ffffff">12/12 · 100%</text>

  <text x="30" y="346" font-family="sans-serif" font-size="12" fill="#536075">Complete-head swaps establish a causal site; they do not yet identify a selective internal variable.</text>
</svg>
