<?xml version="1.0" encoding="utf-8" standalone="no"?>
<!DOCTYPE svg PUBLIC "-//W3C//DTD SVG 1.1//EN"
  "http://www.w3.org/Graphics/SVG/1.1/DTD/svg11.dtd">
<svg xmlns:xlink="http://www.w3.org/1999/xlink" width="892.243437pt" height="337.594687pt" viewBox="0 0 892.243437 337.594687" xmlns="http://www.w3.org/2000/svg" version="1.1">
 <metadata>
  <rdf:RDF xmlns:dc="http://purl.org/dc/elements/1.1/" xmlns:cc="http://creativecommons.org/ns#" xmlns:rdf="http://www.w3.org/1999/02/22-rdf-syntax-ns#">
   <cc:Work>
    <dc:type rdf:resource="http://purl.org/dc/dcmitype/StillImage"/>
    <dc:date>2026-08-27</dc:date>
    <dc:format>image/svg+xml</dc:format>
    <dc:creator>
     <cc:Agent>
      <dc:title>Matplotlib v3.11.1, https://matplotlib.org/</dc:title>
     </cc:Agent>
    </dc:creator>
   </cc:Work>
  </rdf:RDF>
 </metadata>
 <defs>
  <style type="text/css">*{stroke-linejoin: round; stroke-linecap: butt}</style>
 </defs>
 <g id="figure_1">
  <g id="patch_1">
   <path d="M 0 337.594687
L 892.243437 337.594687
L 892.243437 0
L 0 0
z
" style="fill: #ffffff"/>
  </g>
  <g id="axes_1">
   <g id="patch_2">
    <path d="M 40.925781 299.39
L 439.003437 299.39
L 439.003437 37.922578
L 40.925781 37.922578
z
" style="fill: #ffffff"/>
   </g>
   <g id="matplotlib.axis_1">
    <g id="xtick_1">
     <g id="line2d_1">
      <defs>
       <path id="m30f73302b6" d="M 0 0
L 0 3.5
" style="stroke: #000000; stroke-width: 0.8"/>
      </defs>
      <g>
       <use xlink:href="#m30f73302b6" x="59.02022" y="299.39" style="stroke: #000000; stroke-width: 0.8"/>
      </g>
     </g>
     <g id="text_1">
      <!-- 8 -->
      <g transform="translate(55.83897 313.987656) scale(0.1 -0.1)">
       <defs>
        <path id="DejaVuSans-1b" d="M 2034 2216
Q 1584 2216 1326 1975
Q 1069 1734 1069 1313
Q 1069 891 1326 650
Q 1584 409 2034 409
Q 2484 409 2743 651
Q 3003 894 3003 1313
Q 3003 1734 2745 1975
Q 2488 2216 2034 2216
z
M 1403 2484
Q 997 2584 770 2862
Q 544 3141 544 3541
Q 544 4100 942 4425
Q 1341 4750 2034 4750
Q 2731 4750 3128 4425
Q 3525 4100 3525 3541
Q 3525 3141 3298 2862
Q 3072 2584 2669 2484
Q 3125 2378 3379 2068
Q 3634 1759 3634 1313
Q 3634 634 3220 271
Q 2806 -91 2034 -91
Q 1263 -91 848 271
Q 434 634 434 1313
Q 434 1759 690 2068
Q 947 2378 1403 2484
z
M 1172 3481
Q 1172 3119 1398 2916
Q 1625 2713 2034 2713
Q 2441 2713 2670 2916
Q 2900 3119 2900 3481
Q 2900 3844 2670 4047
Q 2441 4250 2034 4250
Q 1625 4250 1398 4047
Q 1172 3844 1172 3481
z
" transform="scale(0.015625)"/>
       </defs>
       <use xlink:href="#DejaVuSans-1b"/>
      </g>
     </g>
    </g>
    <g id="xtick_2">
     <g id="line2d_2">
      <g>
       <use xlink:href="#m30f73302b6" x="110.718617" y="299.39" style="stroke: #000000; stroke-width: 0.8"/>
      </g>
     </g>
     <g id="text_2">
      <!-- 16 -->
      <g transform="translate(104.356117 313.987656) scale(0.1 -0.1)">
       <defs>
        <path id="DejaVuSans-14" d="M 794 531
L 1825 531
L 1825 4091
L 703 3866
L 703 4441
L 1819 4666
L 2450 4666
L 2450 531
L 3481 531
L 3481 0
L 794 0
L 794 531
z
" transform="scale(0.015625)"/>
        <path id="DejaVuSans-19" d="M 2113 2584
Q 1688 2584 1439 2293
Q 1191 2003 1191 1497
Q 1191 994 1439 701
Q 1688 409 2113 409
Q 2538 409 2786 701
Q 3034 994 3034 1497
Q 3034 2003 2786 2293
Q 2538 2584 2113 2584
z
M 3366 4563
L 3366 3988
Q 3128 4100 2886 4159
Q 2644 4219 2406 4219
Q 1781 4219 1451 3797
Q 1122 3375 1075 2522
Q 1259 2794 1537 2939
Q 1816 3084 2150 3084
Q 2853 3084 3261 2657
Q 3669 2231 3669 1497
Q 3669 778 3244 343
Q 2819 -91 2113 -91
Q 1303 -91 875 529
Q 447 1150 447 2328
Q 447 3434 972 4092
Q 1497 4750 2381 4750
Q 2619 4750 2861 4703
Q 3103 4656 3366 4563
z
" transform="scale(0.015625)"/>
       </defs>
       <use xlink:href="#DejaVuSans-14"/>
       <use xlink:href="#DejaVuSans-19" transform="translate(63.625 0)"/>
      </g>
     </g>
    </g>
    <g id="xtick_3">
     <g id="line2d_3">
      <g>
       <use xlink:href="#m30f73302b6" x="162.417014" y="299.39" style="stroke: #000000; stroke-width: 0.8"/>
      </g>
     </g>
     <g id="text_3">
      <!-- 32 -->
      <g transform="translate(156.054514 313.987656) scale(0.1 -0.1)">
       <defs>
        <path id="DejaVuSans-16" d="M 2597 2516
Q 3050 2419 3304 2112
Q 3559 1806 3559 1356
Q 3559 666 3084 287
Q 2609 -91 1734 -91
Q 1441 -91 1130 -33
Q 819 25 488 141
L 488 750
Q 750 597 1062 519
Q 1375 441 1716 441
Q 2309 441 2620 675
Q 2931 909 2931 1356
Q 2931 1769 2642 2001
Q 2353 2234 1838 2234
L 1294 2234
L 1294 2753
L 1863 2753
Q 2328 2753 2575 2939
Q 2822 3125 2822 3475
Q 2822 3834 2567 4026
Q 2313 4219 1838 4219
Q 1578 4219 1281 4162
Q 984 4106 628 3988
L 628 4550
Q 988 4650 1302 4700
Q 1616 4750 1894 4750
Q 2613 4750 3031 4423
Q 3450 4097 3450 3541
Q 3450 3153 3228 2886
Q 3006 2619 2597 2516
z
" transform="scale(0.015625)"/>
        <path id="DejaVuSans-15" d="M 1228 531
L 3431 531
L 3431 0
L 469 0
L 469 531
Q 828 903 1448 1529
Q 2069 2156 2228 2338
Q 2531 2678 2651 2914
Q 2772 3150 2772 3378
Q 2772 3750 2511 3984
Q 2250 4219 1831 4219
Q 1534 4219 1204 4116
Q 875 4013 500 3803
L 500 4441
Q 881 4594 1212 4672
Q 1544 4750 1819 4750
Q 2544 4750 2975 4387
Q 3406 4025 3406 3419
Q 3406 3131 3298 2873
Q 3191 2616 2906 2266
Q 2828 2175 2409 1742
Q 1991 1309 1228 531
z
" transform="scale(0.015625)"/>
       </defs>
       <use xlink:href="#DejaVuSans-16"/>
       <use xlink:href="#DejaVuSans-15" transform="translate(63.625 0)"/>
      </g>
     </g>
    </g>
    <g id="xtick_4">
     <g id="line2d_4">
      <g>
       <use xlink:href="#m30f73302b6" x="214.115411" y="299.39" style="stroke: #000000; stroke-width: 0.8"/>
      </g>
     </g>
     <g id="text_4">
      <!-- 64 -->
      <g transform="translate(207.752911 313.987656) scale(0.1 -0.1)">
       <defs>
        <path id="DejaVuSans-17" d="M 2419 4116
L 825 1625
L 2419 1625
L 2419 4116
z
M 2253 4666
L 3047 4666
L 3047 1625
L 3713 1625
L 3713 1100
L 3047 1100
L 3047 0
L 2419 0
L 2419 1100
L 313 1100
L 313 1709
L 2253 4666
z
" transform="scale(0.015625)"/>
       </defs>
       <use xlink:href="#DejaVuSans-19"/>
       <use xlink:href="#DejaVuSans-17" transform="translate(63.625 0)"/>
      </g>
     </g>
    </g>
    <g id="xtick_5">
     <g id="line2d_5">
      <g>
       <use xlink:href="#m30f73302b6" x="265.813808" y="299.39" style="stroke: #000000; stroke-width: 0.8"/>
      </g>
     </g>
     <g id="text_5">
      <!-- 128 -->
      <g transform="translate(256.270058 313.987656) scale(0.1 -0.1)">
       <use xlink:href="#DejaVuSans-14"/>
       <use xlink:href="#DejaVuSans-15" transform="translate(63.625 0)"/>
       <use xlink:href="#DejaVuSans-1b" transform="translate(127.25 0)"/>
      </g>
     </g>
    </g>
    <g id="xtick_6">
     <g id="line2d_6">
      <g>
       <use xlink:href="#m30f73302b6" x="317.512205" y="299.39" style="stroke: #000000; stroke-width: 0.8"/>
      </g>
     </g>
     <g id="text_6">
      <!-- 256 -->
      <g transform="translate(307.968455 313.987656) scale(0.1 -0.1)">
       <defs>
        <path id="DejaVuSans-18" d="M 691 4666
L 3169 4666
L 3169 4134
L 1269 4134
L 1269 2991
Q 1406 3038 1543 3061
Q 1681 3084 1819 3084
Q 2600 3084 3056 2656
Q 3513 2228 3513 1497
Q 3513 744 3044 326
Q 2575 -91 1722 -91
Q 1428 -91 1123 -41
Q 819 9 494 109
L 494 744
Q 775 591 1075 516
Q 1375 441 1709 441
Q 2250 441 2565 725
Q 2881 1009 2881 1497
Q 2881 1984 2565 2268
Q 2250 2553 1709 2553
Q 1456 2553 1204 2497
Q 953 2441 691 2322
L 691 4666
z
" transform="scale(0.015625)"/>
       </defs>
       <use xlink:href="#DejaVuSans-15"/>
       <use xlink:href="#DejaVuSans-18" transform="translate(63.625 0)"/>
       <use xlink:href="#DejaVuSans-19" transform="translate(127.25 0)"/>
      </g>
     </g>
    </g>
    <g id="xtick_7">
     <g id="line2d_7">
      <g>
       <use xlink:href="#m30f73302b6" x="369.210602" y="299.39" style="stroke: #000000; stroke-width: 0.8"/>
      </g>
     </g>
     <g id="text_7">
      <!-- 512 -->
      <g transform="translate(359.666852 313.987656) scale(0.1 -0.1)">
       <use xlink:href="#DejaVuSans-18"/>
       <use xlink:href="#DejaVuSans-14" transform="translate(63.625 0)"/>
       <use xlink:href="#DejaVuSans-15" transform="translate(127.25 0)"/>
      </g>
     </g>
    </g>
    <g id="xtick_8">
     <g id="line2d_8">
      <g>
       <use xlink:href="#m30f73302b6" x="420.908999" y="299.39" style="stroke: #000000; stroke-width: 0.8"/>
      </g>
     </g>
     <g id="text_8">
      <!-- 1152 -->
      <g transform="translate(408.183999 313.987656) scale(0.1 -0.1)">
       <use xlink:href="#DejaVuSans-14"/>
       <use xlink:href="#DejaVuSans-14" transform="translate(63.625 0)"/>
       <use xlink:href="#DejaVuSans-18" transform="translate(127.25 0)"/>
       <use xlink:href="#DejaVuSans-15" transform="translate(190.875 0)"/>
      </g>
     </g>
    </g>
    <g id="text_9">
     <!-- affine rank -->
     <g transform="translate(213.048203 327.988437) scale(0.1 -0.1)">
      <defs>
       <path id="DejaVuSans-44" d="M 2194 1759
Q 1497 1759 1228 1600
Q 959 1441 959 1056
Q 959 750 1161 570
Q 1363 391 1709 391
Q 2188 391 2477 730
Q 2766 1069 2766 1631
L 2766 1759
L 2194 1759
z
M 3341 1997
L 3341 0
L 2766 0
L 2766 531
Q 2569 213 2275 61
Q 1981 -91 1556 -91
Q 1019 -91 701 211
Q 384 513 384 1019
Q 384 1609 779 1909
Q 1175 2209 1959 2209
L 2766 2209
L 2766 2266
Q 2766 2663 2505 2880
Q 2244 3097 1772 3097
Q 1472 3097 1187 3025
Q 903 2953 641 2809
L 641 3341
Q 956 3463 1253 3523
Q 1550 3584 1831 3584
Q 2591 3584 2966 3190
Q 3341 2797 3341 1997
z
" transform="scale(0.015625)"/>
       <path id="DejaVuSans-13b1" d="M 2375 4863
L 2375 4384
L 1825 4384
Q 1516 4384 1394 4259
Q 1275 4134 1275 3809
L 1275 3500
L 2853 3500
L 2853 3744
Q 2853 4328 3125 4594
Q 3213 4681 3334 4741
Q 3578 4863 3988 4863
L 4531 4863
L 4531 4384
L 3981 4384
Q 3672 4384 3551 4259
Q 3431 4134 3431 3809
L 3431 3500
L 5588 3500
L 5588 0
L 5009 0
L 5009 3053
L 3431 3053
L 3431 0
L 2853 0
L 2853 3053
L 1275 3053
L 1275 0
L 697 0
L 697 3053
L 147 3053
L 147 3500
L 697 3500
L 697 3744
Q 697 4328 969 4595
Q 1241 4863 1831 4863
L 2375 4863
z
M 5009 4856
L 5588 4856
L 5588 4128
L 5009 4128
L 5009 4856
z
" transform="scale(0.015625)"/>
       <path id="DejaVuSans-51" d="M 3513 2113
L 3513 0
L 2938 0
L 2938 2094
Q 2938 2591 2744 2837
Q 2550 3084 2163 3084
Q 1697 3084 1428 2787
Q 1159 2491 1159 1978
L 1159 0
L 581 0
L 581 3500
L 1159 3500
L 1159 2956
Q 1366 3272 1645 3428
Q 1925 3584 2291 3584
Q 2894 3584 3203 3211
Q 3513 2838 3513 2113
z
" transform="scale(0.015625)"/>
       <path id="DejaVuSans-48" d="M 3597 1894
L 3597 1613
L 953 1613
Q 991 1019 1311 708
Q 1631 397 2203 397
Q 2534 397 2845 478
Q 3156 559 3463 722
L 3463 178
Q 3153 47 2828 -22
Q 2503 -91 2169 -91
Q 1331 -91 842 396
Q 353 884 353 1716
Q 353 2575 817 3079
Q 1281 3584 2069 3584
Q 2775 3584 3186 3129
Q 3597 2675 3597 1894
z
M 3022 2063
Q 3016 2534 2758 2815
Q 2500 3097 2075 3097
Q 1594 3097 1305 2825
Q 1016 2553 972 2059
L 3022 2063
z
" transform="scale(0.015625)"/>
       <path id="DejaVuSans-3" transform="scale(0.015625)"/>
       <path id="DejaVuSans-55" d="M 2631 2963
Q 2534 3019 2420 3045
Q 2306 3072 2169 3072
Q 1681 3072 1420 2755
Q 1159 2438 1159 1844
L 1159 0
L 581 0
L 581 3500
L 1159 3500
L 1159 2956
Q 1341 3275 1631 3429
Q 1922 3584 2338 3584
Q 2397 3584 2469 3576
Q 2541 3569 2628 3553
L 2631 2963
z
" transform="scale(0.015625)"/>
       <path id="DejaVuSans-4e" d="M 581 4863
L 1159 4863
L 1159 1991
L 2875 3500
L 3609 3500
L 1753 1863
L 3688 0
L 2938 0
L 1159 1709
L 1159 0
L 581 0
L 581 4863
z
" transform="scale(0.015625)"/>
      </defs>
      <use xlink:href="#DejaVuSans-44"/>
      <use xlink:href="#DejaVuSans-13b1" transform="translate(61.28125 0)"/>
      <use xlink:href="#DejaVuSans-51" transform="translate(157.96875 0)"/>
      <use xlink:href="#DejaVuSans-48" transform="translate(221.34375 0)"/>
      <use xlink:href="#DejaVuSans-3" transform="translate(282.875 0)"/>
      <use xlink:href="#DejaVuSans-55" transform="translate(314.65625 0)"/>
      <use xlink:href="#DejaVuSans-44" transform="translate(355.765625 0)"/>
      <use xlink:href="#DejaVuSans-51" transform="translate(417.046875 0)"/>
      <use xlink:href="#DejaVuSans-4e" transform="translate(480.421875 0)"/>
     </g>
    </g>
   </g>
   <g id="matplotlib.axis_2">
    <g id="ytick_1">
     <g id="line2d_9">
      <path d="M 40.925781 299.39
L 439.003437 299.39
" clip-path="url(#ped5f204acf)" style="fill: none; stroke: #b0b0b0; stroke-opacity: 0.25; stroke-width: 0.8; stroke-linecap: square"/>
     </g>
     <g id="line2d_10">
      <defs>
       <path id="mb4d5a29aae" d="M 0 0
L -3.5 0
" style="stroke: #000000; stroke-width: 0.8"/>
      </defs>
      <g>
       <use xlink:href="#mb4d5a29aae" x="40.925781" y="299.39" style="stroke: #000000; stroke-width: 0.8"/>
      </g>
     </g>
     <g id="text_10">
      <!-- 20 -->
      <g transform="translate(21.200781 303.188828) scale(0.1 -0.1)">
       <defs>
        <path id="DejaVuSans-13" d="M 2034 4250
Q 1547 4250 1301 3770
Q 1056 3291 1056 2328
Q 1056 1369 1301 889
Q 1547 409 2034 409
Q 2525 409 2770 889
Q 3016 1369 3016 2328
Q 3016 3291 2770 3770
Q 2525 4250 2034 4250
z
M 2034 4750
Q 2819 4750 3233 4129
Q 3647 3509 3647 2328
Q 3647 1150 3233 529
Q 2819 -91 2034 -91
Q 1250 -91 836 529
Q 422 1150 422 2328
Q 422 3509 836 4129
Q 1250 4750 2034 4750
z
" transform="scale(0.015625)"/>
       </defs>
       <use xlink:href="#DejaVuSans-15"/>
       <use xlink:href="#DejaVuSans-13" transform="translate(63.625 0)"/>
      </g>
     </g>
    </g>
    <g id="ytick_2">
     <g id="line2d_11">
      <path d="M 40.925781 264.986392
L 439.003437 264.986392
" clip-path="url(#ped5f204acf)" style="fill: none; stroke: #b0b0b0; stroke-opacity: 0.25; stroke-width: 0.8; stroke-linecap: square"/>
     </g>
     <g id="line2d_12">
      <g>
       <use xlink:href="#mb4d5a29aae" x="40.925781" y="264.986392" style="stroke: #000000; stroke-width: 0.8"/>
      </g>
     </g>
     <g id="text_11">
      <!-- 30 -->
      <g transform="translate(21.200781 268.78522) scale(0.1 -0.1)">
       <use xlink:href="#DejaVuSans-16"/>
       <use xlink:href="#DejaVuSans-13" transform="translate(63.625 0)"/>
      </g>
     </g>
    </g>
    <g id="ytick_3">
     <g id="line2d_13">
      <path d="M 40.925781 230.582784
L 439.003437 230.582784
" clip-path="url(#ped5f204acf)" style="fill: none; stroke: #b0b0b0; stroke-opacity: 0.25; stroke-width: 0.8; stroke-linecap: square"/>
     </g>
     <g id="line2d_14">
      <g>
       <use xlink:href="#mb4d5a29aae" x="40.925781" y="230.582784" style="stroke: #000000; stroke-width: 0.8"/>
      </g>
     </g>
     <g id="text_12">
      <!-- 40 -->
      <g transform="translate(21.200781 234.381612) scale(0.1 -0.1)">
       <use xlink:href="#DejaVuSans-17"/>
       <use xlink:href="#DejaVuSans-13" transform="translate(63.625 0)"/>
      </g>
     </g>
    </g>
    <g id="ytick_4">
     <g id="line2d_15">
      <path d="M 40.925781 196.179176
L 439.003437 196.179176
" clip-path="url(#ped5f204acf)" style="fill: none; stroke: #b0b0b0; stroke-opacity: 0.25; stroke-width: 0.8; stroke-linecap: square"/>
     </g>
     <g id="line2d_16">
      <g>
       <use xlink:href="#mb4d5a29aae" x="40.925781" y="196.179176" style="stroke: #000000; stroke-width: 0.8"/>
      </g>
     </g>
     <g id="text_13">
      <!-- 50 -->
      <g transform="translate(21.200781 199.978004) scale(0.1 -0.1)">
       <use xlink:href="#DejaVuSans-18"/>
       <use xlink:href="#DejaVuSans-13" transform="translate(63.625 0)"/>
      </g>
     </g>
    </g>
    <g id="ytick_5">
     <g id="line2d_17">
      <path d="M 40.925781 161.775567
L 439.003437 161.775567
" clip-path="url(#ped5f204acf)" style="fill: none; stroke: #b0b0b0; stroke-opacity: 0.25; stroke-width: 0.8; stroke-linecap: square"/>
     </g>
     <g id="line2d_18">
      <g>
       <use xlink:href="#mb4d5a29aae" x="40.925781" y="161.775567" style="stroke: #000000; stroke-width: 0.8"/>
      </g>
     </g>
     <g id="text_14">
      <!-- 60 -->
      <g transform="translate(21.200781 165.574396) scale(0.1 -0.1)">
       <use xlink:href="#DejaVuSans-19"/>
       <use xlink:href="#DejaVuSans-13" transform="translate(63.625 0)"/>
      </g>
     </g>
    </g>
    <g id="ytick_6">
     <g id="line2d_19">
      <path d="M 40.925781 127.371959
L 439.003437 127.371959
" clip-path="url(#ped5f204acf)" style="fill: none; stroke: #b0b0b0; stroke-opacity: 0.25; stroke-width: 0.8; stroke-linecap: square"/>
     </g>
     <g id="line2d_20">
      <g>
       <use xlink:href="#mb4d5a29aae" x="40.925781" y="127.371959" style="stroke: #000000; stroke-width: 0.8"/>
      </g>
     </g>
     <g id="text_15">
      <!-- 70 -->
      <g transform="translate(21.200781 131.170787) scale(0.1 -0.1)">
       <defs>
        <path id="DejaVuSans-1a" d="M 525 4666
L 3525 4666
L 3525 4397
L 1831 0
L 1172 0
L 2766 4134
L 525 4134
L 525 4666
z
" transform="scale(0.015625)"/>
       </defs>
       <use xlink:href="#DejaVuSans-1a"/>
       <use xlink:href="#DejaVuSans-13" transform="translate(63.625 0)"/>
      </g>
     </g>
    </g>
    <g id="ytick_7">
     <g id="line2d_21">
      <path d="M 40.925781 92.968351
L 439.003437 92.968351
" clip-path="url(#ped5f204acf)" style="fill: none; stroke: #b0b0b0; stroke-opacity: 0.25; stroke-width: 0.8; stroke-linecap: square"/>
     </g>
     <g id="line2d_22">
      <g>
       <use xlink:href="#mb4d5a29aae" x="40.925781" y="92.968351" style="stroke: #000000; stroke-width: 0.8"/>
      </g>
     </g>
     <g id="text_16">
      <!-- 80 -->
      <g transform="translate(21.200781 96.767179) scale(0.1 -0.1)">
       <use xlink:href="#DejaVuSans-1b"/>
       <use xlink:href="#DejaVuSans-13" transform="translate(63.625 0)"/>
      </g>
     </g>
    </g>
    <g id="ytick_8">
     <g id="line2d_23">
      <path d="M 40.925781 58.564743
L 439.003437 58.564743
" clip-path="url(#ped5f204acf)" style="fill: none; stroke: #b0b0b0; stroke-opacity: 0.25; stroke-width: 0.8; stroke-linecap: square"/>
     </g>
     <g id="line2d_24">
      <g>
       <use xlink:href="#mb4d5a29aae" x="40.925781" y="58.564743" style="stroke: #000000; stroke-width: 0.8"/>
      </g>
     </g>
     <g id="text_17">
      <!-- 90 -->
      <g transform="translate(21.200781 62.363571) scale(0.1 -0.1)">
       <defs>
        <path id="DejaVuSans-1c" d="M 703 97
L 703 672
Q 941 559 1184 500
Q 1428 441 1663 441
Q 2288 441 2617 861
Q 2947 1281 2994 2138
Q 2813 1869 2534 1725
Q 2256 1581 1919 1581
Q 1219 1581 811 2004
Q 403 2428 403 3163
Q 403 3881 828 4315
Q 1253 4750 1959 4750
Q 2769 4750 3195 4129
Q 3622 3509 3622 2328
Q 3622 1225 3098 567
Q 2575 -91 1691 -91
Q 1453 -91 1209 -44
Q 966 3 703 97
z
M 1959 2075
Q 2384 2075 2632 2365
Q 2881 2656 2881 3163
Q 2881 3666 2632 3958
Q 2384 4250 1959 4250
Q 1534 4250 1286 3958
Q 1038 3666 1038 3163
Q 1038 2656 1286 2365
Q 1534 2075 1959 2075
z
" transform="scale(0.015625)"/>
       </defs>
       <use xlink:href="#DejaVuSans-1c"/>
       <use xlink:href="#DejaVuSans-13" transform="translate(63.625 0)"/>
      </g>
     </g>
    </g>
    <g id="text_18">
     <!-- effect recovered (%) -->
     <g transform="translate(14.798438 219.856289) rotate(-90) scale(0.1 -0.1)">
      <defs>
       <path id="DejaVuSans-13ae" d="M 4531 4863
L 4531 4384
L 3981 4384
Q 3672 4384 3551 4259
Q 3431 4134 3431 3809
L 3431 3500
L 4378 3500
L 4378 3053
L 3431 3053
L 3431 0
L 2853 0
L 2853 3053
L 1275 3053
L 1275 0
L 697 0
L 697 3053
L 147 3053
L 147 3500
L 697 3500
L 697 3744
Q 697 4328 969 4595
Q 1241 4863 1831 4863
L 2375 4863
L 2375 4384
L 1825 4384
Q 1516 4384 1394 4259
Q 1275 4134 1275 3809
L 1275 3500
L 2853 3500
L 2853 3744
Q 2853 4328 3125 4595
Q 3397 4863 3988 4863
L 4531 4863
z
" transform="scale(0.015625)"/>
       <path id="DejaVuSans-46" d="M 3122 3366
L 3122 2828
Q 2878 2963 2633 3030
Q 2388 3097 2138 3097
Q 1578 3097 1268 2742
Q 959 2388 959 1747
Q 959 1106 1268 751
Q 1578 397 2138 397
Q 2388 397 2633 464
Q 2878 531 3122 666
L 3122 134
Q 2881 22 2623 -34
Q 2366 -91 2075 -91
Q 1284 -91 818 406
Q 353 903 353 1747
Q 353 2603 823 3093
Q 1294 3584 2113 3584
Q 2378 3584 2631 3529
Q 2884 3475 3122 3366
z
" transform="scale(0.015625)"/>
       <path id="DejaVuSans-57" d="M 1172 4494
L 1172 3500
L 2356 3500
L 2356 3053
L 1172 3053
L 1172 1153
Q 1172 725 1289 603
Q 1406 481 1766 481
L 2356 481
L 2356 0
L 1766 0
Q 1100 0 847 248
Q 594 497 594 1153
L 594 3053
L 172 3053
L 172 3500
L 594 3500
L 594 4494
L 1172 4494
z
" transform="scale(0.015625)"/>
       <path id="DejaVuSans-52" d="M 1959 3097
Q 1497 3097 1228 2736
Q 959 2375 959 1747
Q 959 1119 1226 758
Q 1494 397 1959 397
Q 2419 397 2687 759
Q 2956 1122 2956 1747
Q 2956 2369 2687 2733
Q 2419 3097 1959 3097
z
M 1959 3584
Q 2709 3584 3137 3096
Q 3566 2609 3566 1747
Q 3566 888 3137 398
Q 2709 -91 1959 -91
Q 1206 -91 779 398
Q 353 888 353 1747
Q 353 2609 779 3096
Q 1206 3584 1959 3584
z
" transform="scale(0.015625)"/>
       <path id="DejaVuSans-59" d="M 191 3500
L 800 3500
L 1894 563
L 2988 3500
L 3597 3500
L 2284 0
L 1503 0
L 191 3500
z
" transform="scale(0.015625)"/>
       <path id="DejaVuSans-47" d="M 2906 2969
L 2906 4863
L 3481 4863
L 3481 0
L 2906 0
L 2906 525
Q 2725 213 2448 61
Q 2172 -91 1784 -91
Q 1150 -91 751 415
Q 353 922 353 1747
Q 353 2572 751 3078
Q 1150 3584 1784 3584
Q 2172 3584 2448 3432
Q 2725 3281 2906 2969
z
M 947 1747
Q 947 1113 1208 752
Q 1469 391 1925 391
Q 2381 391 2643 752
Q 2906 1113 2906 1747
Q 2906 2381 2643 2742
Q 2381 3103 1925 3103
Q 1469 3103 1208 2742
Q 947 2381 947 1747
z
" transform="scale(0.015625)"/>
       <path id="DejaVuSans-b" d="M 1984 4856
Q 1566 4138 1362 3434
Q 1159 2731 1159 2009
Q 1159 1288 1364 580
Q 1569 -128 1984 -844
L 1484 -844
Q 1016 -109 783 600
Q 550 1309 550 2009
Q 550 2706 781 3412
Q 1013 4119 1484 4856
L 1984 4856
z
" transform="scale(0.015625)"/>
       <path id="DejaVuSans-8" d="M 4653 2053
Q 4381 2053 4226 1822
Q 4072 1591 4072 1178
Q 4072 772 4226 539
Q 4381 306 4653 306
Q 4919 306 5073 539
Q 5228 772 5228 1178
Q 5228 1588 5073 1820
Q 4919 2053 4653 2053
z
M 4653 2450
Q 5147 2450 5437 2106
Q 5728 1763 5728 1178
Q 5728 594 5436 251
Q 5144 -91 4653 -91
Q 4153 -91 3862 251
Q 3572 594 3572 1178
Q 3572 1766 3864 2108
Q 4156 2450 4653 2450
z
M 1428 4353
Q 1159 4353 1004 4120
Q 850 3888 850 3481
Q 850 3069 1003 2837
Q 1156 2606 1428 2606
Q 1700 2606 1854 2837
Q 2009 3069 2009 3481
Q 2009 3884 1853 4118
Q 1697 4353 1428 4353
z
M 4250 4750
L 4750 4750
L 1831 -91
L 1331 -91
L 4250 4750
z
M 1428 4750
Q 1922 4750 2215 4408
Q 2509 4066 2509 3481
Q 2509 2891 2217 2550
Q 1925 2209 1428 2209
Q 931 2209 642 2551
Q 353 2894 353 3481
Q 353 4063 643 4406
Q 934 4750 1428 4750
z
" transform="scale(0.015625)"/>
       <path id="DejaVuSans-c" d="M 513 4856
L 1013 4856
Q 1481 4119 1714 3412
Q 1947 2706 1947 2009
Q 1947 1309 1714 600
Q 1481 -109 1013 -844
L 513 -844
Q 928 -128 1133 580
Q 1338 1288 1338 2009
Q 1338 2731 1133 3434
Q 928 4138 513 4856
z
" transform="scale(0.015625)"/>
      </defs>
      <use xlink:href="#DejaVuSans-48"/>
      <use xlink:href="#DejaVuSans-13ae" transform="translate(61.53125 0)"/>
      <use xlink:href="#DejaVuSans-48" transform="translate(130.421875 0)"/>
      <use xlink:href="#DejaVuSans-46" transform="translate(191.953125 0)"/>
      <use xlink:href="#DejaVuSans-57" transform="translate(246.9375 0)"/>
      <use xlink:href="#DejaVuSans-3" transform="translate(286.140625 0)"/>
      <use xlink:href="#DejaVuSans-55" transform="translate(317.921875 0)"/>
      <use xlink:href="#DejaVuSans-48" transform="translate(356.828125 0)"/>
      <use xlink:href="#DejaVuSans-46" transform="translate(418.359375 0)"/>
      <use xlink:href="#DejaVuSans-52" transform="translate(473.34375 0)"/>
      <use xlink:href="#DejaVuSans-59" transform="translate(534.53125 0)"/>
      <use xlink:href="#DejaVuSans-48" transform="translate(593.71875 0)"/>
      <use xlink:href="#DejaVuSans-55" transform="translate(655.25 0)"/>
      <use xlink:href="#DejaVuSans-48" transform="translate(694.15625 0)"/>
      <use xlink:href="#DejaVuSans-47" transform="translate(755.6875 0)"/>
      <use xlink:href="#DejaVuSans-3" transform="translate(819.171875 0)"/>
      <use xlink:href="#DejaVuSans-b" transform="translate(850.953125 0)"/>
      <use xlink:href="#DejaVuSans-8" transform="translate(889.96875 0)"/>
      <use xlink:href="#DejaVuSans-c" transform="translate(984.984375 0)"/>
     </g>
    </g>
   </g>
   <g id="line2d_25">
    <path d="M 59.02022 274.477358
L 110.718617 243.674953
L 162.417014 191.362016
L 214.115411 132.007818
L 265.813808 87.441957
L 317.512205 62.257808
L 369.210602 53.951229
L 420.908999 51.664259
" clip-path="url(#ped5f204acf)" style="fill: none; stroke: #3478b8; stroke-width: 2.3; stroke-linecap: square"/>
    <defs>
     <path id="meac04c0247" d="M 0 3
C 0.795609 3 1.55874 2.683901 2.12132 2.12132
C 2.683901 1.55874 3 0.795609 3 0
C 3 -0.795609 2.683901 -1.55874 2.12132 -2.12132
C 1.55874 -2.683901 0.795609 -3 0 -3
C -0.795609 -3 -1.55874 -2.683901 -2.12132 -2.12132
C -2.683901 -1.55874 -3 -0.795609 -3 0
C -3 0.795609 -2.683901 1.55874 -2.12132 2.12132
C -1.55874 2.683901 -0.795609 3 0 3
z
" style="stroke: #3478b8"/>
    </defs>
    <g clip-path="url(#ped5f204acf)">
     <use xlink:href="#meac04c0247" x="59.02022" y="274.477358" style="fill: #3478b8; stroke: #3478b8"/>
     <use xlink:href="#meac04c0247" x="110.718617" y="243.674953" style="fill: #3478b8; stroke: #3478b8"/>
     <use xlink:href="#meac04c0247" x="162.417014" y="191.362016" style="fill: #3478b8; stroke: #3478b8"/>
     <use xlink:href="#meac04c0247" x="214.115411" y="132.007818" style="fill: #3478b8; stroke: #3478b8"/>
     <use xlink:href="#meac04c0247" x="265.813808" y="87.441957" style="fill: #3478b8; stroke: #3478b8"/>
     <use xlink:href="#meac04c0247" x="317.512205" y="62.257808" style="fill: #3478b8; stroke: #3478b8"/>
     <use xlink:href="#meac04c0247" x="369.210602" y="53.951229" style="fill: #3478b8; stroke: #3478b8"/>
     <use xlink:href="#meac04c0247" x="420.908999" y="51.664259" style="fill: #3478b8; stroke: #3478b8"/>
    </g>
   </g>
   <g id="line2d_26">
    <path d="M 59.02022 274.464554
L 110.718617 243.663724
L 162.417014 191.353464
L 214.115411 132.002302
L 265.813808 87.43872
L 317.512205 62.255859
L 369.210602 53.949705
L 420.908999 51.662852
" clip-path="url(#ped5f204acf)" style="fill: none; stroke: #2d936c; stroke-width: 1.8; stroke-linecap: square"/>
    <defs>
     <path id="mcabb9a0a1d" d="M -3 3
L 3 3
L 3 -3
L -3 -3
z
" style="stroke: #2d936c; stroke-linejoin: miter"/>
    </defs>
    <g clip-path="url(#ped5f204acf)">
     <use xlink:href="#mcabb9a0a1d" x="59.02022" y="274.464554" style="fill: #2d936c; stroke: #2d936c; stroke-linejoin: miter"/>
     <use xlink:href="#mcabb9a0a1d" x="110.718617" y="243.663724" style="fill: #2d936c; stroke: #2d936c; stroke-linejoin: miter"/>
     <use xlink:href="#mcabb9a0a1d" x="162.417014" y="191.353464" style="fill: #2d936c; stroke: #2d936c; stroke-linejoin: miter"/>
     <use xlink:href="#mcabb9a0a1d" x="214.115411" y="132.002302" style="fill: #2d936c; stroke: #2d936c; stroke-linejoin: miter"/>
     <use xlink:href="#mcabb9a0a1d" x="265.813808" y="87.43872" style="fill: #2d936c; stroke: #2d936c; stroke-linejoin: miter"/>
     <use xlink:href="#mcabb9a0a1d" x="317.512205" y="62.255859" style="fill: #2d936c; stroke: #2d936c; stroke-linejoin: miter"/>
     <use xlink:href="#mcabb9a0a1d" x="369.210602" y="53.949705" style="fill: #2d936c; stroke: #2d936c; stroke-linejoin: miter"/>
     <use xlink:href="#mcabb9a0a1d" x="420.908999" y="51.662852" style="fill: #2d936c; stroke: #2d936c; stroke-linejoin: miter"/>
    </g>
   </g>
   <g id="patch_3">
    <path d="M 40.925781 299.39
L 40.925781 37.922578
" style="fill: none; stroke: #000000; stroke-width: 0.8; stroke-linejoin: miter; stroke-linecap: square"/>
   </g>
   <g id="patch_4">
    <path d="M 439.003437 299.39
L 439.003437 37.922578
" style="fill: none; stroke: #000000; stroke-width: 0.8; stroke-linejoin: miter; stroke-linecap: square"/>
   </g>
   <g id="patch_5">
    <path d="M 40.925781 299.39
L 439.003437 299.39
" style="fill: none; stroke: #000000; stroke-width: 0.8; stroke-linejoin: miter; stroke-linecap: square"/>
   </g>
   <g id="patch_6">
    <path d="M 40.925781 37.922578
L 439.003437 37.922578
" style="fill: none; stroke: #000000; stroke-width: 0.8; stroke-linejoin: miter; stroke-linecap: square"/>
   </g>
   <g id="text_19">
    <!-- Writer approximation improves smoothly; -->
    <g transform="translate(115.187109 17.519297) scale(0.12 -0.12)">
     <defs>
      <path id="DejaVuSans-3a" d="M 213 4666
L 850 4666
L 1831 722
L 2809 4666
L 3519 4666
L 4500 722
L 5478 4666
L 6119 4666
L 4947 0
L 4153 0
L 3169 4050
L 2175 0
L 1381 0
L 213 4666
z
" transform="scale(0.015625)"/>
      <path id="DejaVuSans-4c" d="M 603 3500
L 1178 3500
L 1178 0
L 603 0
L 603 3500
z
M 603 4863
L 1178 4863
L 1178 4134
L 603 4134
L 603 4863
z
" transform="scale(0.015625)"/>
      <path id="DejaVuSans-53" d="M 1159 525
L 1159 -1331
L 581 -1331
L 581 3500
L 1159 3500
L 1159 2969
Q 1341 3281 1617 3432
Q 1894 3584 2278 3584
Q 2916 3584 3314 3078
Q 3713 2572 3713 1747
Q 3713 922 3314 415
Q 2916 -91 2278 -91
Q 1894 -91 1617 61
Q 1341 213 1159 525
z
M 3116 1747
Q 3116 2381 2855 2742
Q 2594 3103 2138 3103
Q 1681 3103 1420 2742
Q 1159 2381 1159 1747
Q 1159 1113 1420 752
Q 1681 391 2138 391
Q 2594 391 2855 752
Q 3116 1113 3116 1747
z
" transform="scale(0.015625)"/>
      <path id="DejaVuSans-5b" d="M 3513 3500
L 2247 1797
L 3578 0
L 2900 0
L 1881 1375
L 863 0
L 184 0
L 1544 1831
L 300 3500
L 978 3500
L 1906 2253
L 2834 3500
L 3513 3500
z
" transform="scale(0.015625)"/>
      <path id="DejaVuSans-50" d="M 3328 2828
Q 3544 3216 3844 3400
Q 4144 3584 4550 3584
Q 5097 3584 5394 3201
Q 5691 2819 5691 2113
L 5691 0
L 5113 0
L 5113 2094
Q 5113 2597 4934 2840
Q 4756 3084 4391 3084
Q 3944 3084 3684 2787
Q 3425 2491 3425 1978
L 3425 0
L 2847 0
L 2847 2094
Q 2847 2600 2669 2842
Q 2491 3084 2119 3084
Q 1678 3084 1418 2786
Q 1159 2488 1159 1978
L 1159 0
L 581 0
L 581 3500
L 1159 3500
L 1159 2956
Q 1356 3278 1631 3431
Q 1906 3584 2284 3584
Q 2666 3584 2933 3390
Q 3200 3197 3328 2828
z
" transform="scale(0.015625)"/>
      <path id="DejaVuSans-56" d="M 2834 3397
L 2834 2853
Q 2591 2978 2328 3040
Q 2066 3103 1784 3103
Q 1356 3103 1142 2972
Q 928 2841 928 2578
Q 928 2378 1081 2264
Q 1234 2150 1697 2047
L 1894 2003
Q 2506 1872 2764 1633
Q 3022 1394 3022 966
Q 3022 478 2636 193
Q 2250 -91 1575 -91
Q 1294 -91 989 -36
Q 684 19 347 128
L 347 722
Q 666 556 975 473
Q 1284 391 1588 391
Q 1994 391 2212 530
Q 2431 669 2431 922
Q 2431 1156 2273 1281
Q 2116 1406 1581 1522
L 1381 1569
Q 847 1681 609 1914
Q 372 2147 372 2553
Q 372 3047 722 3315
Q 1072 3584 1716 3584
Q 2034 3584 2315 3537
Q 2597 3491 2834 3397
z
" transform="scale(0.015625)"/>
      <path id="DejaVuSans-4b" d="M 3513 2113
L 3513 0
L 2938 0
L 2938 2094
Q 2938 2591 2744 2837
Q 2550 3084 2163 3084
Q 1697 3084 1428 2787
Q 1159 2491 1159 1978
L 1159 0
L 581 0
L 581 4863
L 1159 4863
L 1159 2956
Q 1366 3272 1645 3428
Q 1925 3584 2291 3584
Q 2894 3584 3203 3211
Q 3513 2838 3513 2113
z
" transform="scale(0.015625)"/>
      <path id="DejaVuSans-4f" d="M 603 4863
L 1178 4863
L 1178 0
L 603 0
L 603 4863
z
" transform="scale(0.015625)"/>
      <path id="DejaVuSans-5c" d="M 2059 -325
Q 1816 -950 1584 -1140
Q 1353 -1331 966 -1331
L 506 -1331
L 506 -850
L 844 -850
Q 1081 -850 1212 -737
Q 1344 -625 1503 -206
L 1606 56
L 191 3500
L 800 3500
L 1894 763
L 2988 3500
L 3597 3500
L 2059 -325
z
" transform="scale(0.015625)"/>
      <path id="DejaVuSans-1e" d="M 750 3309
L 1409 3309
L 1409 2516
L 750 2516
L 750 3309
z
M 750 794
L 1409 794
L 1409 256
L 897 -744
L 494 -744
L 750 256
L 750 794
z
" transform="scale(0.015625)"/>
     </defs>
     <use xlink:href="#DejaVuSans-3a"/>
     <use xlink:href="#DejaVuSans-55" transform="translate(94.390625 0)"/>
     <use xlink:href="#DejaVuSans-4c" transform="translate(135.5 0)"/>
     <use xlink:href="#DejaVuSans-57" transform="translate(163.28125 0)"/>
     <use xlink:href="#DejaVuSans-48" transform="translate(202.484375 0)"/>
     <use xlink:href="#DejaVuSans-55" transform="translate(264.015625 0)"/>
     <use xlink:href="#DejaVuSans-3" transform="translate(305.125 0)"/>
     <use xlink:href="#DejaVuSans-44" transform="translate(336.90625 0)"/>
     <use xlink:href="#DejaVuSans-53" transform="translate(398.1875 0)"/>
     <use xlink:href="#DejaVuSans-53" transform="translate(461.671875 0)"/>
     <use xlink:href="#DejaVuSans-55" transform="translate(525.15625 0)"/>
     <use xlink:href="#DejaVuSans-52" transform="translate(564.0625 0)"/>
     <use xlink:href="#DejaVuSans-5b" transform="translate(622.171875 0)"/>
     <use xlink:href="#DejaVuSans-4c" transform="translate(681.359375 0)"/>
     <use xlink:href="#DejaVuSans-50" transform="translate(709.140625 0)"/>
     <use xlink:href="#DejaVuSans-44" transform="translate(806.546875 0)"/>
     <use xlink:href="#DejaVuSans-57" transform="translate(867.828125 0)"/>
     <use xlink:href="#DejaVuSans-4c" transform="translate(907.03125 0)"/>
     <use xlink:href="#DejaVuSans-52" transform="translate(934.8125 0)"/>
     <use xlink:href="#DejaVuSans-51" transform="translate(996 0)"/>
     <use xlink:href="#DejaVuSans-3" transform="translate(1059.375 0)"/>
     <use xlink:href="#DejaVuSans-4c" transform="translate(1091.15625 0)"/>
     <use xlink:href="#DejaVuSans-50" transform="translate(1118.9375 0)"/>
     <use xlink:href="#DejaVuSans-53" transform="translate(1216.34375 0)"/>
     <use xlink:href="#DejaVuSans-55" transform="translate(1279.828125 0)"/>
     <use xlink:href="#DejaVuSans-52" transform="translate(1318.734375 0)"/>
     <use xlink:href="#DejaVuSans-59" transform="translate(1379.921875 0)"/>
     <use xlink:href="#DejaVuSans-48" transform="translate(1439.109375 0)"/>
     <use xlink:href="#DejaVuSans-56" transform="translate(1500.640625 0)"/>
     <use xlink:href="#DejaVuSans-3" transform="translate(1552.734375 0)"/>
     <use xlink:href="#DejaVuSans-56" transform="translate(1584.515625 0)"/>
     <use xlink:href="#DejaVuSans-50" transform="translate(1636.609375 0)"/>
     <use xlink:href="#DejaVuSans-52" transform="translate(1734.015625 0)"/>
     <use xlink:href="#DejaVuSans-52" transform="translate(1795.203125 0)"/>
     <use xlink:href="#DejaVuSans-57" transform="translate(1856.390625 0)"/>
     <use xlink:href="#DejaVuSans-4b" transform="translate(1895.59375 0)"/>
     <use xlink:href="#DejaVuSans-4f" transform="translate(1958.96875 0)"/>
     <use xlink:href="#DejaVuSans-5c" transform="translate(1986.75 0)"/>
     <use xlink:href="#DejaVuSans-1e" transform="translate(2045.9375 0)"/>
    </g>
    <!-- rank 128 is the frozen operational knee -->
    <g transform="translate(121.437422 31.922578) scale(0.12 -0.12)">
     <defs>
      <path id="DejaVuSans-49" d="M 2375 4863
L 2375 4384
L 1825 4384
Q 1516 4384 1395 4259
Q 1275 4134 1275 3809
L 1275 3500
L 2222 3500
L 2222 3053
L 1275 3053
L 1275 0
L 697 0
L 697 3053
L 147 3053
L 147 3500
L 697 3500
L 697 3744
Q 697 4328 969 4595
Q 1241 4863 1831 4863
L 2375 4863
z
" transform="scale(0.015625)"/>
      <path id="DejaVuSans-5d" d="M 353 3500
L 3084 3500
L 3084 2975
L 922 459
L 3084 459
L 3084 0
L 275 0
L 275 525
L 2438 3041
L 353 3041
L 353 3500
z
" transform="scale(0.015625)"/>
     </defs>
     <use xlink:href="#DejaVuSans-55"/>
     <use xlink:href="#DejaVuSans-44" transform="translate(41.109375 0)"/>
     <use xlink:href="#DejaVuSans-51" transform="translate(102.390625 0)"/>
     <use xlink:href="#DejaVuSans-4e" transform="translate(165.765625 0)"/>
     <use xlink:href="#DejaVuSans-3" transform="translate(223.671875 0)"/>
     <use xlink:href="#DejaVuSans-14" transform="translate(255.453125 0)"/>
     <use xlink:href="#DejaVuSans-15" transform="translate(319.078125 0)"/>
     <use xlink:href="#DejaVuSans-1b" transform="translate(382.703125 0)"/>
     <use xlink:href="#DejaVuSans-3" transform="translate(446.328125 0)"/>
     <use xlink:href="#DejaVuSans-4c" transform="translate(478.109375 0)"/>
     <use xlink:href="#DejaVuSans-56" transform="translate(505.890625 0)"/>
     <use xlink:href="#DejaVuSans-3" transform="translate(557.984375 0)"/>
     <use xlink:href="#DejaVuSans-57" transform="translate(589.765625 0)"/>
     <use xlink:href="#DejaVuSans-4b" transform="translate(628.96875 0)"/>
     <use xlink:href="#DejaVuSans-48" transform="translate(692.34375 0)"/>
     <use xlink:href="#DejaVuSans-3" transform="translate(753.875 0)"/>
     <use xlink:href="#DejaVuSans-49" transform="translate(785.65625 0)"/>
     <use xlink:href="#DejaVuSans-55" transform="translate(820.859375 0)"/>
     <use xlink:href="#DejaVuSans-52" transform="translate(859.765625 0)"/>
     <use xlink:href="#DejaVuSans-5d" transform="translate(920.953125 0)"/>
     <use xlink:href="#DejaVuSans-48" transform="translate(973.4375 0)"/>
     <use xlink:href="#DejaVuSans-51" transform="translate(1034.96875 0)"/>
     <use xlink:href="#DejaVuSans-3" transform="translate(1098.34375 0)"/>
     <use xlink:href="#DejaVuSans-52" transform="translate(1130.125 0)"/>
     <use xlink:href="#DejaVuSans-53" transform="translate(1191.3125 0)"/>
     <use xlink:href="#DejaVuSans-48" transform="translate(1254.796875 0)"/>
     <use xlink:href="#DejaVuSans-55" transform="translate(1316.328125 0)"/>
     <use xlink:href="#DejaVuSans-44" transform="translate(1357.4375 0)"/>
     <use xlink:href="#DejaVuSans-57" transform="translate(1418.71875 0)"/>
     <use xlink:href="#DejaVuSans-4c" transform="translate(1457.921875 0)"/>
     <use xlink:href="#DejaVuSans-52" transform="translate(1485.703125 0)"/>
     <use xlink:href="#DejaVuSans-51" transform="translate(1546.890625 0)"/>
     <use xlink:href="#DejaVuSans-44" transform="translate(1610.265625 0)"/>
     <use xlink:href="#DejaVuSans-4f" transform="translate(1671.546875 0)"/>
     <use xlink:href="#DejaVuSans-3" transform="translate(1699.328125 0)"/>
     <use xlink:href="#DejaVuSans-4e" transform="translate(1731.109375 0)"/>
     <use xlink:href="#DejaVuSans-51" transform="translate(1789.015625 0)"/>
     <use xlink:href="#DejaVuSans-48" transform="translate(1852.390625 0)"/>
     <use xlink:href="#DejaVuSans-48" transform="translate(1913.921875 0)"/>
    </g>
   </g>
   <g id="legend_1">
    <g id="line2d_27">
     <path d="M 49.925781 51.021016
L 59.925781 51.021016
L 69.925781 51.021016
" style="fill: none; stroke: #3478b8; stroke-width: 2.3; stroke-linecap: square"/>
     <g>
      <use xlink:href="#meac04c0247" x="59.925781" y="51.021016" style="fill: #3478b8; stroke: #3478b8"/>
     </g>
    </g>
    <g id="text_20">
     <!-- held-out fidelity -->
     <g transform="translate(77.925781 54.521016) scale(0.1 -0.1)">
      <defs>
       <path id="DejaVuSans-10" d="M 313 2009
L 1997 2009
L 1997 1497
L 313 1497
L 313 2009
z
" transform="scale(0.015625)"/>
       <path id="DejaVuSans-58" d="M 544 1381
L 544 3500
L 1119 3500
L 1119 1403
Q 1119 906 1312 657
Q 1506 409 1894 409
Q 2359 409 2629 706
Q 2900 1003 2900 1516
L 2900 3500
L 3475 3500
L 3475 0
L 2900 0
L 2900 538
Q 2691 219 2414 64
Q 2138 -91 1772 -91
Q 1169 -91 856 284
Q 544 659 544 1381
z
M 1991 3584
L 1991 3584
z
" transform="scale(0.015625)"/>
       <path id="DejaVuSans-13af" d="M 3431 3500
L 3431 0
L 2853 0
L 2853 3053
L 1275 3053
L 1275 0
L 697 0
L 697 3053
L 147 3053
L 147 3500
L 697 3500
L 697 3744
Q 697 4316 967 4589
Q 1238 4863 1797 4863
L 2375 4863
L 2375 4384
L 1825 4384
Q 1516 4384 1395 4259
Q 1275 4134 1275 3809
L 1275 3500
L 3431 3500
z
M 2853 4856
L 3431 4856
L 3431 4128
L 2853 4128
L 2853 4856
z
" transform="scale(0.015625)"/>
      </defs>
      <use xlink:href="#DejaVuSans-4b"/>
      <use xlink:href="#DejaVuSans-48" transform="translate(63.375 0)"/>
      <use xlink:href="#DejaVuSans-4f" transform="translate(124.90625 0)"/>
      <use xlink:href="#DejaVuSans-47" transform="translate(152.6875 0)"/>
      <use xlink:href="#DejaVuSans-10" transform="translate(216.171875 0)"/>
      <use xlink:href="#DejaVuSans-52" transform="translate(254.109375 0)"/>
      <use xlink:href="#DejaVuSans-58" transform="translate(315.296875 0)"/>
      <use xlink:href="#DejaVuSans-57" transform="translate(378.671875 0)"/>
      <use xlink:href="#DejaVuSans-3" transform="translate(417.875 0)"/>
      <use xlink:href="#DejaVuSans-13af" transform="translate(449.65625 0)"/>
      <use xlink:href="#DejaVuSans-47" transform="translate(512.640625 0)"/>
      <use xlink:href="#DejaVuSans-48" transform="translate(576.125 0)"/>
      <use xlink:href="#DejaVuSans-4f" transform="translate(637.65625 0)"/>
      <use xlink:href="#DejaVuSans-4c" transform="translate(665.4375 0)"/>
      <use xlink:href="#DejaVuSans-57" transform="translate(693.21875 0)"/>
      <use xlink:href="#DejaVuSans-5c" transform="translate(732.421875 0)"/>
     </g>
    </g>
    <g id="line2d_28">
     <path d="M 49.925781 66.021797
L 59.925781 66.021797
L 69.925781 66.021797
" style="fill: none; stroke: #2d936c; stroke-width: 1.8; stroke-linecap: square"/>
     <g>
      <use xlink:href="#mcabb9a0a1d" x="59.925781" y="66.021797" style="fill: #2d936c; stroke: #2d936c; stroke-linejoin: miter"/>
     </g>
    </g>
    <g id="text_21">
     <!-- extraction retention -->
     <g transform="translate(77.925781 69.521797) scale(0.1 -0.1)">
      <use xlink:href="#DejaVuSans-48"/>
      <use xlink:href="#DejaVuSans-5b" transform="translate(59.78125 0)"/>
      <use xlink:href="#DejaVuSans-57" transform="translate(118.96875 0)"/>
      <use xlink:href="#DejaVuSans-55" transform="translate(158.171875 0)"/>
      <use xlink:href="#DejaVuSans-44" transform="translate(199.28125 0)"/>
      <use xlink:href="#DejaVuSans-46" transform="translate(260.5625 0)"/>
      <use xlink:href="#DejaVuSans-57" transform="translate(315.546875 0)"/>
      <use xlink:href="#DejaVuSans-4c" transform="translate(354.75 0)"/>
      <use xlink:href="#DejaVuSans-52" transform="translate(382.53125 0)"/>
      <use xlink:href="#DejaVuSans-51" transform="translate(443.71875 0)"/>
      <use xlink:href="#DejaVuSans-3" transform="translate(507.09375 0)"/>
      <use xlink:href="#DejaVuSans-55" transform="translate(538.875 0)"/>
      <use xlink:href="#DejaVuSans-48" transform="translate(577.78125 0)"/>
      <use xlink:href="#DejaVuSans-57" transform="translate(639.3125 0)"/>
      <use xlink:href="#DejaVuSans-48" transform="translate(678.515625 0)"/>
      <use xlink:href="#DejaVuSans-51" transform="translate(740.046875 0)"/>
      <use xlink:href="#DejaVuSans-57" transform="translate(803.421875 0)"/>
      <use xlink:href="#DejaVuSans-4c" transform="translate(842.625 0)"/>
      <use xlink:href="#DejaVuSans-52" transform="translate(870.40625 0)"/>
      <use xlink:href="#DejaVuSans-51" transform="translate(931.59375 0)"/>
     </g>
    </g>
   </g>
  </g>
  <g id="axes_2">
   <g id="patch_7">
    <path d="M 486.965781 299.39
L 885.043437 299.39
L 885.043437 37.922578
L 486.965781 37.922578
z
" style="fill: #ffffff"/>
   </g>
   <g id="patch_8">
    <path d="M 505.06022 299.39
L 637.905468 299.39
L 637.905468 256.812377
L 505.06022 256.812377
z
" clip-path="url(#p0970b0bbb6)" style="fill: #3478b8"/>
   </g>
   <g id="patch_9">
    <path d="M 734.103751 299.39
L 866.948999 299.39
L 866.948999 67.025145
L 734.103751 67.025145
z
" clip-path="url(#p0970b0bbb6)" style="fill: #c94c4c"/>
   </g>
   <g id="matplotlib.axis_3">
    <g id="xtick_9">
     <g id="line2d_29">
      <g>
       <use xlink:href="#m30f73302b6" x="571.482844" y="299.39" style="stroke: #000000; stroke-width: 0.8"/>
      </g>
     </g>
     <g id="text_22">
      <!-- isolated -->
      <g transform="translate(551.765657 314.989414) scale(0.1 -0.1)">
       <use xlink:href="#DejaVuSans-4c"/>
       <use xlink:href="#DejaVuSans-56" transform="translate(27.78125 0)"/>
       <use xlink:href="#DejaVuSans-52" transform="translate(79.875 0)"/>
       <use xlink:href="#DejaVuSans-4f" transform="translate(141.0625 0)"/>
       <use xlink:href="#DejaVuSans-44" transform="translate(168.84375 0)"/>
       <use xlink:href="#DejaVuSans-57" transform="translate(230.125 0)"/>
       <use xlink:href="#DejaVuSans-48" transform="translate(269.328125 0)"/>
       <use xlink:href="#DejaVuSans-47" transform="translate(330.859375 0)"/>
      </g>
      <!-- MLP2 -->
      <g transform="translate(558.18675 326.991367) scale(0.1 -0.1)">
       <defs>
        <path id="DejaVuSans-30" d="M 628 4666
L 1569 4666
L 2759 1491
L 3956 4666
L 4897 4666
L 4897 0
L 4281 0
L 4281 4097
L 3078 897
L 2444 897
L 1241 4097
L 1241 0
L 628 0
L 628 4666
z
" transform="scale(0.015625)"/>
        <path id="DejaVuSans-2f" d="M 628 4666
L 1259 4666
L 1259 531
L 3531 531
L 3531 0
L 628 0
L 628 4666
z
" transform="scale(0.015625)"/>
        <path id="DejaVuSans-33" d="M 1259 4147
L 1259 2394
L 2053 2394
Q 2494 2394 2734 2622
Q 2975 2850 2975 3272
Q 2975 3691 2734 3919
Q 2494 4147 2053 4147
L 1259 4147
z
M 628 4666
L 2053 4666
Q 2838 4666 3239 4311
Q 3641 3956 3641 3272
Q 3641 2581 3239 2228
Q 2838 1875 2053 1875
L 1259 1875
L 1259 0
L 628 0
L 628 4666
z
" transform="scale(0.015625)"/>
       </defs>
       <use xlink:href="#DejaVuSans-30"/>
       <use xlink:href="#DejaVuSans-2f" transform="translate(86.28125 0)"/>
       <use xlink:href="#DejaVuSans-33" transform="translate(142 0)"/>
       <use xlink:href="#DejaVuSans-15" transform="translate(202.296875 0)"/>
      </g>
     </g>
    </g>
    <g id="xtick_10">
     <g id="line2d_30">
      <g>
       <use xlink:href="#m30f73302b6" x="800.526375" y="299.39" style="stroke: #000000; stroke-width: 0.8"/>
      </g>
     </g>
     <g id="text_23">
      <!-- after replaced -->
      <g transform="translate(765.459187 314.989414) scale(0.1 -0.1)">
       <use xlink:href="#DejaVuSans-44"/>
       <use xlink:href="#DejaVuSans-49" transform="translate(61.28125 0)"/>
       <use xlink:href="#DejaVuSans-57" transform="translate(94.734375 0)"/>
       <use xlink:href="#DejaVuSans-48" transform="translate(133.9375 0)"/>
       <use xlink:href="#DejaVuSans-55" transform="translate(195.46875 0)"/>
       <use xlink:href="#DejaVuSans-3" transform="translate(236.578125 0)"/>
       <use xlink:href="#DejaVuSans-55" transform="translate(268.359375 0)"/>
       <use xlink:href="#DejaVuSans-48" transform="translate(307.265625 0)"/>
       <use xlink:href="#DejaVuSans-53" transform="translate(368.796875 0)"/>
       <use xlink:href="#DejaVuSans-4f" transform="translate(432.28125 0)"/>
       <use xlink:href="#DejaVuSans-44" transform="translate(460.0625 0)"/>
       <use xlink:href="#DejaVuSans-46" transform="translate(521.34375 0)"/>
       <use xlink:href="#DejaVuSans-48" transform="translate(576.328125 0)"/>
       <use xlink:href="#DejaVuSans-47" transform="translate(637.859375 0)"/>
      </g>
      <!-- MLP0+1 -->
      <g transform="translate(779.859187 326.991367) scale(0.1 -0.1)">
       <defs>
        <path id="DejaVuSans-e" d="M 2944 4013
L 2944 2272
L 4684 2272
L 4684 1741
L 2944 1741
L 2944 0
L 2419 0
L 2419 1741
L 678 1741
L 678 2272
L 2419 2272
L 2419 4013
L 2944 4013
z
" transform="scale(0.015625)"/>
       </defs>
       <use xlink:href="#DejaVuSans-30"/>
       <use xlink:href="#DejaVuSans-2f" transform="translate(86.28125 0)"/>
       <use xlink:href="#DejaVuSans-33" transform="translate(142 0)"/>
       <use xlink:href="#DejaVuSans-13" transform="translate(202.296875 0)"/>
       <use xlink:href="#DejaVuSans-e" transform="translate(265.921875 0)"/>
       <use xlink:href="#DejaVuSans-14" transform="translate(349.71875 0)"/>
      </g>
     </g>
    </g>
   </g>
   <g id="matplotlib.axis_4">
    <g id="ytick_9">
     <g id="line2d_31">
      <path d="M 486.965781 299.39
L 885.043437 299.39
" clip-path="url(#p0970b0bbb6)" style="fill: none; stroke: #b0b0b0; stroke-opacity: 0.25; stroke-width: 0.8; stroke-linecap: square"/>
     </g>
     <g id="line2d_32">
      <g>
       <use xlink:href="#mb4d5a29aae" x="486.965781" y="299.39" style="stroke: #000000; stroke-width: 0.8"/>
      </g>
     </g>
     <g id="text_24">
      <!-- 0.0 -->
      <g transform="translate(464.062656 303.188828) scale(0.1 -0.1)">
       <defs>
        <path id="DejaVuSans-11" d="M 684 794
L 1344 794
L 1344 0
L 684 0
L 684 794
z
" transform="scale(0.015625)"/>
       </defs>
       <use xlink:href="#DejaVuSans-13"/>
       <use xlink:href="#DejaVuSans-11" transform="translate(63.625 0)"/>
       <use xlink:href="#DejaVuSans-13" transform="translate(95.40625 0)"/>
      </g>
     </g>
    </g>
    <g id="ytick_10">
     <g id="line2d_33">
      <path d="M 486.965781 267.503729
L 885.043437 267.503729
" clip-path="url(#p0970b0bbb6)" style="fill: none; stroke: #b0b0b0; stroke-opacity: 0.25; stroke-width: 0.8; stroke-linecap: square"/>
     </g>
     <g id="line2d_34">
      <g>
       <use xlink:href="#mb4d5a29aae" x="486.965781" y="267.503729" style="stroke: #000000; stroke-width: 0.8"/>
      </g>
     </g>
     <g id="text_25">
      <!-- 0.1 -->
      <g transform="translate(464.062656 271.302557) scale(0.1 -0.1)">
       <use xlink:href="#DejaVuSans-13"/>
       <use xlink:href="#DejaVuSans-11" transform="translate(63.625 0)"/>
       <use xlink:href="#DejaVuSans-14" transform="translate(95.40625 0)"/>
      </g>
     </g>
    </g>
    <g id="ytick_11">
     <g id="line2d_35">
      <path d="M 486.965781 235.617458
L 885.043437 235.617458
" clip-path="url(#p0970b0bbb6)" style="fill: none; stroke: #b0b0b0; stroke-opacity: 0.25; stroke-width: 0.8; stroke-linecap: square"/>
     </g>
     <g id="line2d_36">
      <g>
       <use xlink:href="#mb4d5a29aae" x="486.965781" y="235.617458" style="stroke: #000000; stroke-width: 0.8"/>
      </g>
     </g>
     <g id="text_26">
      <!-- 0.2 -->
      <g transform="translate(464.062656 239.416286) scale(0.1 -0.1)">
       <use xlink:href="#DejaVuSans-13"/>
       <use xlink:href="#DejaVuSans-11" transform="translate(63.625 0)"/>
       <use xlink:href="#DejaVuSans-15" transform="translate(95.40625 0)"/>
      </g>
     </g>
    </g>
    <g id="ytick_12">
     <g id="line2d_37">
      <path d="M 486.965781 203.731187
L 885.043437 203.731187
" clip-path="url(#p0970b0bbb6)" style="fill: none; stroke: #b0b0b0; stroke-opacity: 0.25; stroke-width: 0.8; stroke-linecap: square"/>
     </g>
     <g id="line2d_38">
      <g>
       <use xlink:href="#mb4d5a29aae" x="486.965781" y="203.731187" style="stroke: #000000; stroke-width: 0.8"/>
      </g>
     </g>
     <g id="text_27">
      <!-- 0.3 -->
      <g transform="translate(464.062656 207.530015) scale(0.1 -0.1)">
       <use xlink:href="#DejaVuSans-13"/>
       <use xlink:href="#DejaVuSans-11" transform="translate(63.625 0)"/>
       <use xlink:href="#DejaVuSans-16" transform="translate(95.40625 0)"/>
      </g>
     </g>
    </g>
    <g id="ytick_13">
     <g id="line2d_39">
      <path d="M 486.965781 171.844916
L 885.043437 171.844916
" clip-path="url(#p0970b0bbb6)" style="fill: none; stroke: #b0b0b0; stroke-opacity: 0.25; stroke-width: 0.8; stroke-linecap: square"/>
     </g>
     <g id="line2d_40">
      <g>
       <use xlink:href="#mb4d5a29aae" x="486.965781" y="171.844916" style="stroke: #000000; stroke-width: 0.8"/>
      </g>
     </g>
     <g id="text_28">
      <!-- 0.4 -->
      <g transform="translate(464.062656 175.643744) scale(0.1 -0.1)">
       <use xlink:href="#DejaVuSans-13"/>
       <use xlink:href="#DejaVuSans-11" transform="translate(63.625 0)"/>
       <use xlink:href="#DejaVuSans-17" transform="translate(95.40625 0)"/>
      </g>
     </g>
    </g>
    <g id="ytick_14">
     <g id="line2d_41">
      <path d="M 486.965781 139.958645
L 885.043437 139.958645
" clip-path="url(#p0970b0bbb6)" style="fill: none; stroke: #b0b0b0; stroke-opacity: 0.25; stroke-width: 0.8; stroke-linecap: square"/>
     </g>
     <g id="line2d_42">
      <g>
       <use xlink:href="#mb4d5a29aae" x="486.965781" y="139.958645" style="stroke: #000000; stroke-width: 0.8"/>
      </g>
     </g>
     <g id="text_29">
      <!-- 0.5 -->
      <g transform="translate(464.062656 143.757473) scale(0.1 -0.1)">
       <use xlink:href="#DejaVuSans-13"/>
       <use xlink:href="#DejaVuSans-11" transform="translate(63.625 0)"/>
       <use xlink:href="#DejaVuSans-18" transform="translate(95.40625 0)"/>
      </g>
     </g>
    </g>
    <g id="ytick_15">
     <g id="line2d_43">
      <path d="M 486.965781 108.072374
L 885.043437 108.072374
" clip-path="url(#p0970b0bbb6)" style="fill: none; stroke: #b0b0b0; stroke-opacity: 0.25; stroke-width: 0.8; stroke-linecap: square"/>
     </g>
     <g id="line2d_44">
      <g>
       <use xlink:href="#mb4d5a29aae" x="486.965781" y="108.072374" style="stroke: #000000; stroke-width: 0.8"/>
      </g>
     </g>
     <g id="text_30">
      <!-- 0.6 -->
      <g transform="translate(464.062656 111.871202) scale(0.1 -0.1)">
       <use xlink:href="#DejaVuSans-13"/>
       <use xlink:href="#DejaVuSans-11" transform="translate(63.625 0)"/>
       <use xlink:href="#DejaVuSans-19" transform="translate(95.40625 0)"/>
      </g>
     </g>
    </g>
    <g id="ytick_16">
     <g id="line2d_45">
      <path d="M 486.965781 76.186103
L 885.043437 76.186103
" clip-path="url(#p0970b0bbb6)" style="fill: none; stroke: #b0b0b0; stroke-opacity: 0.25; stroke-width: 0.8; stroke-linecap: square"/>
     </g>
     <g id="line2d_46">
      <g>
       <use xlink:href="#mb4d5a29aae" x="486.965781" y="76.186103" style="stroke: #000000; stroke-width: 0.8"/>
      </g>
     </g>
     <g id="text_31">
      <!-- 0.7 -->
      <g transform="translate(464.062656 79.984931) scale(0.1 -0.1)">
       <use xlink:href="#DejaVuSans-13"/>
       <use xlink:href="#DejaVuSans-11" transform="translate(63.625 0)"/>
       <use xlink:href="#DejaVuSans-1a" transform="translate(95.40625 0)"/>
      </g>
     </g>
    </g>
    <g id="ytick_17">
     <g id="line2d_47">
      <path d="M 486.965781 44.299832
L 885.043437 44.299832
" clip-path="url(#p0970b0bbb6)" style="fill: none; stroke: #b0b0b0; stroke-opacity: 0.25; stroke-width: 0.8; stroke-linecap: square"/>
     </g>
     <g id="line2d_48">
      <g>
       <use xlink:href="#mb4d5a29aae" x="486.965781" y="44.299832" style="stroke: #000000; stroke-width: 0.8"/>
      </g>
     </g>
     <g id="text_32">
      <!-- 0.8 -->
      <g transform="translate(464.062656 48.09866) scale(0.1 -0.1)">
       <use xlink:href="#DejaVuSans-13"/>
       <use xlink:href="#DejaVuSans-11" transform="translate(63.625 0)"/>
       <use xlink:href="#DejaVuSans-1b" transform="translate(95.40625 0)"/>
      </g>
     </g>
    </g>
    <g id="text_33">
     <!-- incremental CE from rank-128 MLP2 -->
     <g transform="translate(457.660312 258.983633) rotate(-90) scale(0.1 -0.1)">
      <defs>
       <path id="DejaVuSans-26" d="M 4122 4306
L 4122 3641
Q 3803 3938 3442 4084
Q 3081 4231 2675 4231
Q 1875 4231 1450 3742
Q 1025 3253 1025 2328
Q 1025 1406 1450 917
Q 1875 428 2675 428
Q 3081 428 3442 575
Q 3803 722 4122 1019
L 4122 359
Q 3791 134 3420 21
Q 3050 -91 2638 -91
Q 1578 -91 968 557
Q 359 1206 359 2328
Q 359 3453 968 4101
Q 1578 4750 2638 4750
Q 3056 4750 3426 4639
Q 3797 4528 4122 4306
z
" transform="scale(0.015625)"/>
       <path id="DejaVuSans-28" d="M 628 4666
L 3578 4666
L 3578 4134
L 1259 4134
L 1259 2753
L 3481 2753
L 3481 2222
L 1259 2222
L 1259 531
L 3634 531
L 3634 0
L 628 0
L 628 4666
z
" transform="scale(0.015625)"/>
      </defs>
      <use xlink:href="#DejaVuSans-4c"/>
      <use xlink:href="#DejaVuSans-51" transform="translate(27.78125 0)"/>
      <use xlink:href="#DejaVuSans-46" transform="translate(91.15625 0)"/>
      <use xlink:href="#DejaVuSans-55" transform="translate(146.140625 0)"/>
      <use xlink:href="#DejaVuSans-48" transform="translate(185.046875 0)"/>
      <use xlink:href="#DejaVuSans-50" transform="translate(246.578125 0)"/>
      <use xlink:href="#DejaVuSans-48" transform="translate(343.984375 0)"/>
      <use xlink:href="#DejaVuSans-51" transform="translate(405.515625 0)"/>
      <use xlink:href="#DejaVuSans-57" transform="translate(468.890625 0)"/>
      <use xlink:href="#DejaVuSans-44" transform="translate(508.09375 0)"/>
      <use xlink:href="#DejaVuSans-4f" transform="translate(569.375 0)"/>
      <use xlink:href="#DejaVuSans-3" transform="translate(597.15625 0)"/>
      <use xlink:href="#DejaVuSans-26" transform="translate(628.9375 0)"/>
      <use xlink:href="#DejaVuSans-28" transform="translate(698.765625 0)"/>
      <use xlink:href="#DejaVuSans-3" transform="translate(761.953125 0)"/>
      <use xlink:href="#DejaVuSans-49" transform="translate(793.734375 0)"/>
      <use xlink:href="#DejaVuSans-55" transform="translate(828.9375 0)"/>
      <use xlink:href="#DejaVuSans-52" transform="translate(867.84375 0)"/>
      <use xlink:href="#DejaVuSans-50" transform="translate(929.03125 0)"/>
      <use xlink:href="#DejaVuSans-3" transform="translate(1026.4375 0)"/>
      <use xlink:href="#DejaVuSans-55" transform="translate(1058.21875 0)"/>
      <use xlink:href="#DejaVuSans-44" transform="translate(1099.328125 0)"/>
      <use xlink:href="#DejaVuSans-51" transform="translate(1160.609375 0)"/>
      <use xlink:href="#DejaVuSans-4e" transform="translate(1223.984375 0)"/>
      <use xlink:href="#DejaVuSans-10" transform="translate(1281.890625 0)"/>
      <use xlink:href="#DejaVuSans-14" transform="translate(1317.96875 0)"/>
      <use xlink:href="#DejaVuSans-15" transform="translate(1381.59375 0)"/>
      <use xlink:href="#DejaVuSans-1b" transform="translate(1445.21875 0)"/>
      <use xlink:href="#DejaVuSans-3" transform="translate(1508.84375 0)"/>
      <use xlink:href="#DejaVuSans-30" transform="translate(1540.625 0)"/>
      <use xlink:href="#DejaVuSans-2f" transform="translate(1626.90625 0)"/>
      <use xlink:href="#DejaVuSans-33" transform="translate(1682.625 0)"/>
      <use xlink:href="#DejaVuSans-15" transform="translate(1742.921875 0)"/>
     </g>
    </g>
   </g>
   <g id="patch_10">
    <path d="M 486.965781 299.39
L 486.965781 37.922578
" style="fill: none; stroke: #000000; stroke-width: 0.8; stroke-linejoin: miter; stroke-linecap: square"/>
   </g>
   <g id="patch_11">
    <path d="M 885.043437 299.39
L 885.043437 37.922578
" style="fill: none; stroke: #000000; stroke-width: 0.8; stroke-linejoin: miter; stroke-linecap: square"/>
   </g>
   <g id="patch_12">
    <path d="M 486.965781 299.39
L 885.043437 299.39
" style="fill: none; stroke: #000000; stroke-width: 0.8; stroke-linejoin: miter; stroke-linecap: square"/>
   </g>
   <g id="patch_13">
    <path d="M 486.965781 37.922578
L 885.043437 37.922578
" style="fill: none; stroke: #000000; stroke-width: 0.8; stroke-linejoin: miter; stroke-linecap: square"/>
   </g>
   <g id="text_34">
    <!-- 0.134 -->
    <g transform="translate(557.168782 248.840809) scale(0.1 -0.1)">
     <use xlink:href="#DejaVuSans-13"/>
     <use xlink:href="#DejaVuSans-11" transform="translate(63.625 0)"/>
     <use xlink:href="#DejaVuSans-14" transform="translate(95.40625 0)"/>
     <use xlink:href="#DejaVuSans-16" transform="translate(159.03125 0)"/>
     <use xlink:href="#DejaVuSans-17" transform="translate(222.65625 0)"/>
    </g>
   </g>
   <g id="text_35">
    <!-- 0.729 -->
    <g transform="translate(786.212312 59.053577) scale(0.1 -0.1)">
     <use xlink:href="#DejaVuSans-13"/>
     <use xlink:href="#DejaVuSans-11" transform="translate(63.625 0)"/>
     <use xlink:href="#DejaVuSans-1a" transform="translate(95.40625 0)"/>
     <use xlink:href="#DejaVuSans-15" transform="translate(159.03125 0)"/>
     <use xlink:href="#DejaVuSans-1c" transform="translate(222.65625 0)"/>
    </g>
   </g>
   <g id="text_36">
    <g id="patch_14">
     <path d="M 630.034453 163.026987
L 741.974766 163.026987
Q 744.674766 163.026987 744.674766 160.326987
L 744.674766 138.722066
Q 744.674766 136.022066 741.974766 136.022066
L 630.034453 136.022066
Q 627.334453 136.022066 627.334453 138.722066
L 627.334453 160.326987
Q 627.334453 163.026987 630.034453 163.026987
z
" style="fill: #ffffff; stroke: #e3a82b; stroke-linejoin: miter"/>
    </g>
    <!-- layer-5 head 7 removes -->
    <g style="fill: #17324d" transform="translate(632.693672 146.461538) scale(0.09 -0.09)">
     <use xlink:href="#DejaVuSans-4f"/>
     <use xlink:href="#DejaVuSans-44" transform="translate(27.78125 0)"/>
     <use xlink:href="#DejaVuSans-5c" transform="translate(89.0625 0)"/>
     <use xlink:href="#DejaVuSans-48" transform="translate(148.25 0)"/>
     <use xlink:href="#DejaVuSans-55" transform="translate(209.78125 0)"/>
     <use xlink:href="#DejaVuSans-10" transform="translate(244.5 0)"/>
     <use xlink:href="#DejaVuSans-18" transform="translate(280.578125 0)"/>
     <use xlink:href="#DejaVuSans-3" transform="translate(344.203125 0)"/>
     <use xlink:href="#DejaVuSans-4b" transform="translate(375.984375 0)"/>
     <use xlink:href="#DejaVuSans-48" transform="translate(439.359375 0)"/>
     <use xlink:href="#DejaVuSans-44" transform="translate(500.890625 0)"/>
     <use xlink:href="#DejaVuSans-47" transform="translate(562.171875 0)"/>
     <use xlink:href="#DejaVuSans-3" transform="translate(625.65625 0)"/>
     <use xlink:href="#DejaVuSans-1a" transform="translate(657.4375 0)"/>
     <use xlink:href="#DejaVuSans-3" transform="translate(721.0625 0)"/>
     <use xlink:href="#DejaVuSans-55" transform="translate(752.84375 0)"/>
     <use xlink:href="#DejaVuSans-48" transform="translate(791.75 0)"/>
     <use xlink:href="#DejaVuSans-50" transform="translate(853.28125 0)"/>
     <use xlink:href="#DejaVuSans-52" transform="translate(950.6875 0)"/>
     <use xlink:href="#DejaVuSans-59" transform="translate(1011.875 0)"/>
     <use xlink:href="#DejaVuSans-48" transform="translate(1071.0625 0)"/>
     <use xlink:href="#DejaVuSans-56" transform="translate(1132.59375 0)"/>
    </g>
    <!-- 52.7% of angular margin -->
    <g style="fill: #17324d" transform="translate(630.034453 157.263999) scale(0.09 -0.09)">
     <defs>
      <path id="DejaVuSans-4a" d="M 2906 1791
Q 2906 2416 2648 2759
Q 2391 3103 1925 3103
Q 1463 3103 1205 2759
Q 947 2416 947 1791
Q 947 1169 1205 825
Q 1463 481 1925 481
Q 2391 481 2648 825
Q 2906 1169 2906 1791
z
M 3481 434
Q 3481 -459 3084 -895
Q 2688 -1331 1869 -1331
Q 1566 -1331 1297 -1286
Q 1028 -1241 775 -1147
L 775 -588
Q 1028 -725 1275 -790
Q 1522 -856 1778 -856
Q 2344 -856 2625 -561
Q 2906 -266 2906 331
L 2906 616
Q 2728 306 2450 153
Q 2172 0 1784 0
Q 1141 0 747 490
Q 353 981 353 1791
Q 353 2603 747 3093
Q 1141 3584 1784 3584
Q 2172 3584 2450 3431
Q 2728 3278 2906 2969
L 2906 3500
L 3481 3500
L 3481 434
z
" transform="scale(0.015625)"/>
     </defs>
     <use xlink:href="#DejaVuSans-18"/>
     <use xlink:href="#DejaVuSans-15" transform="translate(63.625 0)"/>
     <use xlink:href="#DejaVuSans-11" transform="translate(127.25 0)"/>
     <use xlink:href="#DejaVuSans-1a" transform="translate(159.03125 0)"/>
     <use xlink:href="#DejaVuSans-8" transform="translate(222.65625 0)"/>
     <use xlink:href="#DejaVuSans-3" transform="translate(317.671875 0)"/>
     <use xlink:href="#DejaVuSans-52" transform="translate(349.453125 0)"/>
     <use xlink:href="#DejaVuSans-49" transform="translate(410.640625 0)"/>
     <use xlink:href="#DejaVuSans-3" transform="translate(445.84375 0)"/>
     <use xlink:href="#DejaVuSans-44" transform="translate(477.625 0)"/>
     <use xlink:href="#DejaVuSans-51" transform="translate(538.90625 0)"/>
     <use xlink:href="#DejaVuSans-4a" transform="translate(602.28125 0)"/>
     <use xlink:href="#DejaVuSans-58" transform="translate(665.765625 0)"/>
     <use xlink:href="#DejaVuSans-4f" transform="translate(729.140625 0)"/>
     <use xlink:href="#DejaVuSans-44" transform="translate(756.921875 0)"/>
     <use xlink:href="#DejaVuSans-55" transform="translate(818.203125 0)"/>
     <use xlink:href="#DejaVuSans-3" transform="translate(859.3125 0)"/>
     <use xlink:href="#DejaVuSans-50" transform="translate(891.09375 0)"/>
     <use xlink:href="#DejaVuSans-44" transform="translate(988.5 0)"/>
     <use xlink:href="#DejaVuSans-55" transform="translate(1049.78125 0)"/>
     <use xlink:href="#DejaVuSans-4a" transform="translate(1089.140625 0)"/>
     <use xlink:href="#DejaVuSans-4c" transform="translate(1152.625 0)"/>
     <use xlink:href="#DejaVuSans-51" transform="translate(1180.40625 0)"/>
    </g>
   </g>
   <g id="text_37">
    <!-- The same writer error costs 5.46× more -->
    <g transform="translate(565.486172 17.519297) scale(0.12 -0.12)">
     <defs>
      <path id="DejaVuSans-37" d="M -19 4666
L 3928 4666
L 3928 4134
L 2272 4134
L 2272 0
L 1638 0
L 1638 4134
L -19 4134
L -19 4666
z
" transform="scale(0.015625)"/>
      <path id="DejaVuSans-5a" d="M 269 3500
L 844 3500
L 1563 769
L 2278 3500
L 2956 3500
L 3675 769
L 4391 3500
L 4966 3500
L 4050 0
L 3372 0
L 2619 2869
L 1863 0
L 1184 0
L 269 3500
z
" transform="scale(0.015625)"/>
      <path id="DejaVuSans-99" d="M 4488 3438
L 3059 2003
L 4488 575
L 4116 197
L 2681 1631
L 1247 197
L 878 575
L 2303 2003
L 878 3438
L 1247 3816
L 2681 2381
L 4116 3816
L 4488 3438
z
" transform="scale(0.015625)"/>
     </defs>
     <use xlink:href="#DejaVuSans-37"/>
     <use xlink:href="#DejaVuSans-4b" transform="translate(61.078125 0)"/>
     <use xlink:href="#DejaVuSans-48" transform="translate(124.453125 0)"/>
     <use xlink:href="#DejaVuSans-3" transform="translate(185.984375 0)"/>
     <use xlink:href="#DejaVuSans-56" transform="translate(217.765625 0)"/>
     <use xlink:href="#DejaVuSans-44" transform="translate(269.859375 0)"/>
     <use xlink:href="#DejaVuSans-50" transform="translate(331.140625 0)"/>
     <use xlink:href="#DejaVuSans-48" transform="translate(428.546875 0)"/>
     <use xlink:href="#DejaVuSans-3" transform="translate(490.078125 0)"/>
     <use xlink:href="#DejaVuSans-5a" transform="translate(521.859375 0)"/>
     <use xlink:href="#DejaVuSans-55" transform="translate(603.640625 0)"/>
     <use xlink:href="#DejaVuSans-4c" transform="translate(644.75 0)"/>
     <use xlink:href="#DejaVuSans-57" transform="translate(672.53125 0)"/>
     <use xlink:href="#DejaVuSans-48" transform="translate(711.734375 0)"/>
     <use xlink:href="#DejaVuSans-55" transform="translate(773.265625 0)"/>
     <use xlink:href="#DejaVuSans-3" transform="translate(814.375 0)"/>
     <use xlink:href="#DejaVuSans-48" transform="translate(846.15625 0)"/>
     <use xlink:href="#DejaVuSans-55" transform="translate(907.6875 0)"/>
     <use xlink:href="#DejaVuSans-55" transform="translate(947.046875 0)"/>
     <use xlink:href="#DejaVuSans-52" transform="translate(985.953125 0)"/>
     <use xlink:href="#DejaVuSans-55" transform="translate(1047.140625 0)"/>
     <use xlink:href="#DejaVuSans-3" transform="translate(1088.25 0)"/>
     <use xlink:href="#DejaVuSans-46" transform="translate(1120.03125 0)"/>
     <use xlink:href="#DejaVuSans-52" transform="translate(1175.015625 0)"/>
     <use xlink:href="#DejaVuSans-56" transform="translate(1236.203125 0)"/>
     <use xlink:href="#DejaVuSans-57" transform="translate(1288.296875 0)"/>
     <use xlink:href="#DejaVuSans-56" transform="translate(1327.5 0)"/>
     <use xlink:href="#DejaVuSans-3" transform="translate(1379.59375 0)"/>
     <use xlink:href="#DejaVuSans-18" transform="translate(1411.375 0)"/>
     <use xlink:href="#DejaVuSans-11" transform="translate(1475 0)"/>
     <use xlink:href="#DejaVuSans-17" transform="translate(1506.78125 0)"/>
     <use xlink:href="#DejaVuSans-19" transform="translate(1570.40625 0)"/>
     <use xlink:href="#DejaVuSans-99" transform="translate(1634.03125 0)"/>
     <use xlink:href="#DejaVuSans-3" transform="translate(1717.828125 0)"/>
     <use xlink:href="#DejaVuSans-50" transform="translate(1749.609375 0)"/>
     <use xlink:href="#DejaVuSans-52" transform="translate(1847.015625 0)"/>
     <use xlink:href="#DejaVuSans-55" transform="translate(1908.203125 0)"/>
     <use xlink:href="#DejaVuSans-48" transform="translate(1947.109375 0)"/>
    </g>
    <!-- under the composed upstream state -->
    <g transform="translate(576.200859 31.922578) scale(0.12 -0.12)">
     <use xlink:href="#DejaVuSans-58"/>
     <use xlink:href="#DejaVuSans-51" transform="translate(63.375 0)"/>
     <use xlink:href="#DejaVuSans-47" transform="translate(126.75 0)"/>
     <use xlink:href="#DejaVuSans-48" transform="translate(190.234375 0)"/>
     <use xlink:href="#DejaVuSans-55" transform="translate(251.765625 0)"/>
     <use xlink:href="#DejaVuSans-3" transform="translate(292.875 0)"/>
     <use xlink:href="#DejaVuSans-57" transform="translate(324.65625 0)"/>
     <use xlink:href="#DejaVuSans-4b" transform="translate(363.859375 0)"/>
     <use xlink:href="#DejaVuSans-48" transform="translate(427.234375 0)"/>
     <use xlink:href="#DejaVuSans-3" transform="translate(488.765625 0)"/>
     <use xlink:href="#DejaVuSans-46" transform="translate(520.546875 0)"/>
     <use xlink:href="#DejaVuSans-52" transform="translate(575.53125 0)"/>
     <use xlink:href="#DejaVuSans-50" transform="translate(636.71875 0)"/>
     <use xlink:href="#DejaVuSans-53" transform="translate(734.125 0)"/>
     <use xlink:href="#DejaVuSans-52" transform="translate(797.609375 0)"/>
     <use xlink:href="#DejaVuSans-56" transform="translate(858.796875 0)"/>
     <use xlink:href="#DejaVuSans-48" transform="translate(910.890625 0)"/>
     <use xlink:href="#DejaVuSans-47" transform="translate(972.421875 0)"/>
     <use xlink:href="#DejaVuSans-3" transform="translate(1035.90625 0)"/>
     <use xlink:href="#DejaVuSans-58" transform="translate(1067.6875 0)"/>
     <use xlink:href="#DejaVuSans-53" transform="translate(1131.0625 0)"/>
     <use xlink:href="#DejaVuSans-56" transform="translate(1194.546875 0)"/>
     <use xlink:href="#DejaVuSans-57" transform="translate(1246.640625 0)"/>
     <use xlink:href="#DejaVuSans-55" transform="translate(1285.84375 0)"/>
     <use xlink:href="#DejaVuSans-48" transform="translate(1324.75 0)"/>
     <use xlink:href="#DejaVuSans-44" transform="translate(1386.28125 0)"/>
     <use xlink:href="#DejaVuSans-50" transform="translate(1447.5625 0)"/>
     <use xlink:href="#DejaVuSans-3" transform="translate(1544.96875 0)"/>
     <use xlink:href="#DejaVuSans-56" transform="translate(1576.75 0)"/>
     <use xlink:href="#DejaVuSans-57" transform="translate(1628.84375 0)"/>
     <use xlink:href="#DejaVuSans-44" transform="translate(1668.046875 0)"/>
     <use xlink:href="#DejaVuSans-57" transform="translate(1729.328125 0)"/>
     <use xlink:href="#DejaVuSans-48" transform="translate(1768.53125 0)"/>
    </g>
   </g>
  </g>
 </g>
 <defs>
  <clipPath id="ped5f204acf">
   <rect x="40.925781" y="37.922578" width="398.077656" height="261.467422"/>
  </clipPath>
  <clipPath id="p0970b0bbb6">
   <rect x="486.965781" y="37.922578" width="398.077656" height="261.467422"/>
  </clipPath>
 </defs>
</svg>
